<svg id="Layer_5" enable-background="new 0 0 64 64" height="512" viewBox="0 0 64 64" width="512" xmlns="http://www.w3.org/2000/svg"><g><path d="m20.666 48.6c.75.265 1.535.4 2.334.4v-2c-.571 0-1.132-.096-1.666-.285z"/><path d="m18 42v-.277c0-.891.239-1.767.691-2.534l2.165-3.682-1.725-1.014-2.164 3.681c-.632 1.073-.967 2.301-.967 3.549v.277c0 1.984.851 3.885 2.332 5.213l1.336-1.488c-1.061-.951-1.668-2.308-1.668-3.725z"/><path d="m15.482 26.893-.822-1.823c-.642.289-1.269.601-1.861.925l.961 1.754c.548-.3 1.127-.588 1.722-.856z"/><path d="m6.517 31.613 1.711 1.035c.303-.5.666-.993 1.08-1.466l-1.504-1.317c-.492.559-.924 1.148-1.287 1.748z"/><path d="m5.073 35.758 1.986.236c.069-.589.204-1.17.4-1.729l-1.887-.662c-.244.697-.412 1.421-.499 2.155z"/><path d="m11.011 27.084c-.604.408-1.169.838-1.683 1.279l1.303 1.518c.455-.391.96-.774 1.501-1.14z"/><path d="m63 49c0-6.378-2.49-9.969-5.127-13.771-2.887-4.166-5.873-8.473-5.873-17.229v-2h-3c-3.375 0-5.613 2.199-5.707 2.293l-.438.437.196.586c.019.059 1.949 5.879 1.949 8.684 0 1.253-.314 2.352-.85 3.347-1.964-5.205-6.974-8.184-10.914-9.772-.158-.367-.312-.699-.453-.99-.489-1.001-.783-1.606-.783-3.585 0-3.773.939-6.656.949-6.685l.376-1.136-1.183-.169c-.049-.008-3.75-.467-6.142 3.823v-4.925c0-2.1-.616-4.134-1.781-5.882-.428-.643-1.144-1.026-1.916-1.026-1.27 0-2.303 1.033-2.303 2.303v5.053c-2.262-2.692-4.99-2.351-5.142-2.33l-1.097.157.269 1.075c.009.039.97 3.919.97 6.758 0 2.692-.875 5.39-2.458 7.632-4.456 2.122-11.542 6.837-11.542 15.352 0 7.859 8.045 13.299 15.604 13.932 1.805 1.296 4.01 2.068 6.396 2.068.693 0 1.378-.072 2.052-.199.49 6.095 6.419 7.658 9.154 8.048.729 1.47 3.337 2.151 5.794 2.151 2.401 0 4.948-.651 5.743-2.052 10.348-.484 17.257-5.226 17.257-11.948zm-32.342-37.85c-.299 1.309-.658 3.393-.658 5.85 0 1.838.247 2.798.603 3.642-.31-.095-.603-.18-.869-.253-.838-.229-1.612-.681-2.238-1.307-.443-.443-.782-.958-1.032-1.511.9-4.6 2.896-6.007 4.194-6.421zm-10.658 1.384v.005c0 2.005-.69 3.972-1.944 5.54l-.065.082c-.639.799-1.435 1.473-2.327 2.016.866-1.945 1.336-4.054 1.336-6.161 0-2.008-.418-4.396-.722-5.867 1.085.326 2.689 1.346 3.722 4.385zm-17 24.466c0-8.221 7.536-12.462 12.027-14.259 1.791-.716 3.355-1.868 4.526-3.333l.065-.082c1.536-1.918 2.382-4.329 2.382-6.786v-9.237c0-.269.405-.391.555-.168.945 1.419 1.445 3.069 1.445 4.773v7.562c0 1.899.739 3.684 2.082 5.026.872.872 1.952 1.502 3.124 1.822 3.532.968 11.771 3.964 13.467 11.019-1.682 1.757-4.081 3.198-6.56 4.681-.78.466-1.575.945-2.364 1.441-.246-1.162-.664-2.288-1.267-3.312l-9.482-16.119-9.48 16.119c-.995 1.687-1.52 3.616-1.52 5.576v.277c0 2.44.808 4.689 2.158 6.516-5.788-1.387-11.158-5.674-11.158-11.516zm11 5v-.277c0-1.604.43-3.181 1.243-4.563l7.757-13.188 7.757 13.188c.63 1.071 1.019 2.275 1.165 3.507-3.443 2.41-6.401 5.42-6.858 10.068-.675.159-1.362.265-2.064.265-4.963 0-9-4.037-9-9zm13 10c0-6.204 4.925-9.148 10.139-12.267 4.029-2.409 8.161-4.891 9.447-9.009.311.461.624.92.933 1.367 2.569 3.707 5.481 7.908 5.481 14.909 0 4.803-2.809 8.796-7.916 11.311-1.135-.891-3.156-1.311-5.084-1.311-2.286 0-4.704.59-5.617 1.856-2.675-.387-7.383-1.786-7.383-6.856zm13 9c-2.348 0-3.718-.673-3.975-1 .257-.327 1.627-1 3.975-1s3.718.673 3.975 1c-.257.327-1.627 1-3.975 1zm8.396-2.3c4.235-2.876 6.604-7.005 6.604-11.7 0-7.626-3.102-12.101-5.839-16.051-.773-1.114-1.5-2.175-2.172-3.311-.11-2.597-1.331-6.715-1.832-8.305.672-.504 2.053-1.333 3.843-1.333h1c0 9.382 3.31 14.156 6.229 18.367 2.56 3.693 4.771 6.881 4.771 12.633 0 5.649-5.901 8.779-12.604 9.7z"/><path d="m38.484 43.847-.785-1.84c-.354.151-8.699 3.779-8.699 9.993h2c0-4.892 7.41-8.122 7.484-8.153z"/><path d="m48.986 46.942h2c0-8.306-4.047-11.701-4.22-11.842l-1.264 1.551c.036.029 3.484 2.926 3.484 10.291z"/></g></svg>